<svg width="147" height="146" viewBox="0 0 147 146" fill="none" xmlns="http://www.w3.org/2000/svg">
<g opacity="0.2" filter="url(#filter0_f)">
<ellipse cx="73.5" cy="73.2121" rx="35.5" ry="34.5187" fill="#DB8864"/>
</g>
<g clip-path="url(#clip0)">
<circle opacity="0.4" cx="53" cy="59.2461" r="40" fill="#EC8080"/>
<path fill-rule="evenodd" clip-rule="evenodd" d="M56.0523 50.5439C57.7533 48.5631 63.9153 47.8917 63.9153 47.8917C63.9153 47.8917 65.9198 52.3837 63.4918 55.2172C63.4918 55.2172 62.1683 56.9089 58.9684 57.2368C55.7331 61.2978 54.0971 65.5011 54.0971 69.7473V72.0639C54.1021 72.4592 53.9237 72.8365 53.6095 73.0953C53.2953 73.3541 52.8772 73.4681 52.4666 73.4067C51.7492 73.29 51.2316 72.6888 51.2526 71.9967V69.7339C51.2526 62.1801 47.1587 55.3716 39.9592 51.0475C39.613 50.837 39.3804 50.4934 39.3221 50.1065C39.2638 49.7196 39.3856 49.3277 39.6557 49.0332C40.1431 48.546 40.9263 48.4585 41.5191 48.825C45.8588 51.3669 49.3449 55.0196 51.5873 59.3517C51.5949 59.3664 51.6025 59.381 51.6101 59.3957C51.6949 59.5605 51.778 59.7262 51.8592 59.8929C51.8655 59.9057 51.8718 59.9186 51.878 59.9315C51.9932 60.1688 52.1047 60.4081 52.2125 60.6492C52.3272 60.8886 52.5782 61.0423 52.8548 61.0423C53.1314 61.0423 53.3824 60.8886 53.4971 60.6492C53.6102 60.4225 53.7264 60.1973 53.8457 59.9737C53.8569 59.9525 53.8683 59.9314 53.8796 59.9102C53.9638 59.7533 54.0495 59.5972 54.1367 59.4418C54.145 59.427 54.1533 59.4122 54.1616 59.3974C54.6955 58.45 55.2848 57.532 55.9269 56.6478C54.4148 55.0684 54.4403 52.4255 56.0523 50.5439ZM53.1639 56.6413C51.9682 54.2444 52.4527 51.2549 54.2714 49.1319L54.2732 49.1298C55.0461 48.2298 56.1501 47.6459 57.0788 47.2577C58.0588 46.848 59.1249 46.5432 60.0697 46.3193C61.024 46.0932 61.9119 45.9362 62.5579 45.8358C62.8825 45.7854 63.1502 45.7486 63.3396 45.7241C63.4344 45.7118 63.5098 45.7026 63.5633 45.6963L63.6268 45.6889L63.6456 45.6868L63.6539 45.6858C63.6539 45.6858 63.6555 45.6857 63.9153 47.8917C66.0358 47.0159 66.0364 47.0172 66.0364 47.0172L66.0371 47.0187L66.0386 47.022L66.042 47.0299L66.0511 47.0507C66.0581 47.0668 66.0669 47.0873 66.0773 47.1121C66.098 47.1616 66.1252 47.2281 66.1573 47.3102C66.2212 47.4741 66.3049 47.7017 66.3947 47.9804C66.5728 48.5328 66.7828 49.3112 66.9029 50.2084C67.1321 51.9218 67.0847 54.4955 65.2927 56.6056C65.286 56.6138 65.2788 56.6225 65.2711 56.6316C65.2434 56.6645 65.2095 56.7037 65.1692 56.7482C65.0887 56.8373 64.9821 56.9482 64.8482 57.0741C64.5806 57.3258 64.2018 57.6392 63.701 57.9571C62.8751 58.4814 61.7367 59.0051 60.2579 59.2909C57.6387 62.8094 56.4048 66.312 56.4048 69.7473V72.0534C56.413 73.1055 55.9359 74.1019 55.1103 74.7818C54.2818 75.4642 53.1853 75.7608 52.1126 75.6006L52.0971 75.5983L52.0816 75.5957C50.2614 75.2994 48.9105 73.7724 48.9448 71.9717V69.7339C48.9448 63.0115 45.3212 56.8852 38.7371 52.9307L38.7263 52.9243C37.815 52.3702 37.1941 51.4599 37.0382 50.425C36.8822 49.3896 37.2093 48.345 37.9252 47.5643L37.9584 47.5282L37.9931 47.4935C39.2398 46.2475 41.2253 46.0227 42.7381 46.9398C46.9877 49.4331 50.4849 52.9103 52.9152 57.0286C52.9971 56.8989 53.08 56.7698 53.1639 56.6413ZM63.9153 47.8917L63.6555 45.6857L65.3594 45.5L66.0358 47.0159L63.9153 47.8917Z" fill="#2C5857"/>
</g>
<defs>
<filter id="filter0_f" x="0" y="0.693359" width="147" height="145.037" filterUnits="userSpaceOnUse" color-interpolation-filters="sRGB">
<feFlood flood-opacity="0" result="BackgroundImageFix"/>
<feBlend mode="normal" in="SourceGraphic" in2="BackgroundImageFix" result="shape"/>
<feGaussianBlur stdDeviation="19" result="effect1_foregroundBlur"/>
</filter>
<clipPath id="clip0">
<rect width="80" height="77.7887" fill="white" transform="translate(13 19.2461)"/>
</clipPath>
</defs>
</svg>
