<svg width="147" height="146" viewBox="0 0 147 146" fill="none" xmlns="http://www.w3.org/2000/svg">
<g opacity="0.4" filter="url(#filter0_f)">
<ellipse cx="73.5" cy="73.2121" rx="35.5" ry="34.5187" fill="#64DB9B"/>
</g>
<g clip-path="url(#clip0)">
<circle opacity="0.4" cx="54" cy="59.2461" r="40" fill="#A2EC80"/>
<path d="M45.3256 70.2562C45.3256 70.2562 45.7397 67.4156 44.0681 64.9354C43.637 64.2961 44.209 63.1231 44.8125 61.8855C45.1866 61.1183 45.5729 60.3262 45.7397 59.6211C46.0395 58.3549 44.8973 58.0258 43.894 57.7367C43.4375 57.6052 43.0098 57.482 42.7598 57.2825C42.36 56.9636 41.8875 56.1133 41.4151 55.263C40.9426 54.4127 40.4071 53.3411 40.0074 53.0222M45.3256 70.2562C41.496 67.5863 39 63.2146 39 58.2746C39.0064 56.4897 39.4041 54.6037 40.0074 53.0222M45.3256 70.2562C47.7982 71.98 50.8267 72.9944 54.0983 72.9944C62.4369 72.9944 69.1966 66.4042 69.1966 58.2746C69.1966 56.8794 68.9975 55.5296 68.6256 54.2506M40.0074 53.0222C42.1891 47.4961 47.6754 43.5547 54.0983 43.5547C61.0059 43.5547 66.83 48.0771 68.6256 54.2506M55.043 43.6065C55.043 43.6065 54.4615 47.8582 52.1357 49.2754C49.81 50.6926 48.0654 52.9599 49.3737 55.5111C50.4792 57.6663 52.7261 57.2924 55.0185 56.9109C55.4393 56.8409 55.8616 56.7706 56.2787 56.7157C57.7991 56.5155 57.8095 59.0102 57.8202 61.5753C57.8284 63.5475 57.8368 65.5612 58.5318 66.4236C60.1308 68.4077 64.637 64.4396 64.2011 61.8884C63.5554 58.1114 63.3925 56.9431 68.6256 54.2506" stroke="#2C5857" stroke-width="2"/>
</g>
<defs>
<filter id="filter0_f" x="0" y="0.693359" width="147" height="145.037" filterUnits="userSpaceOnUse" color-interpolation-filters="sRGB">
<feFlood flood-opacity="0" result="BackgroundImageFix"/>
<feBlend mode="normal" in="SourceGraphic" in2="BackgroundImageFix" result="shape"/>
<feGaussianBlur stdDeviation="19" result="effect1_foregroundBlur"/>
</filter>
<clipPath id="clip0">
<rect width="80" height="77.7887" fill="white" transform="translate(14 19.2461)"/>
</clipPath>
</defs>
</svg>
