<svg width="147" height="146" viewBox="0 0 147 146" fill="none" xmlns="http://www.w3.org/2000/svg">
<g opacity="0.4" filter="url(#filter0_f)">
<ellipse cx="73.5" cy="73.2121" rx="35.5" ry="34.5187" fill="#64DBC5"/>
</g>
<g clip-path="url(#clip0)">
<circle opacity="0.4" cx="52" cy="59.2461" r="40" fill="#80ECD8"/>
<path d="M44 73.2461L41.2548 67.2027C38.6896 61.9087 40.1923 55.7026 44.5333 52.1101C47.2355 49.8738 49.8137 47.4922 52.1796 44.904C52.4926 44.5616 53.0394 44.5867 53.3197 44.9564L54.1796 46.0902C55.9052 48.3656 57.222 50.7852 58 53.2369L44 73.2461Z" fill="#A3E9DC"/>
<path d="M44 73.2461L43.0895 73.6597C43.238 73.9866 43.5505 74.2088 43.9081 74.2419C44.2656 74.2749 44.6135 74.1136 44.8194 73.8194L44 73.2461ZM41.2548 67.2027L42.1653 66.7891L42.1602 66.7778L42.1547 66.7666L41.2548 67.2027ZM44.5333 52.1101L45.1709 52.8805L45.1709 52.8805L44.5333 52.1101ZM54.1796 46.0902L53.3828 46.6945L53.3828 46.6945L54.1796 46.0902ZM58 53.2369L58.8194 53.8102L59.1026 53.4054L58.9532 52.9344L58 53.2369ZM44.9105 72.8325L42.1653 66.7891L40.3444 67.6162L43.0895 73.6597L44.9105 72.8325ZM42.1547 66.7666C39.7953 61.8973 41.176 56.1865 45.1709 52.8805L43.8958 51.3397C39.2086 55.2186 37.5838 61.92 40.3549 67.6387L42.1547 66.7666ZM45.1709 52.8805C47.9006 50.6215 50.5141 48.2081 52.9177 45.5787L51.4415 44.2293C49.1132 46.7763 46.5705 49.1262 43.8957 51.3397L45.1709 52.8805ZM52.5229 45.5606L53.3828 46.6945L54.9764 45.486L54.1165 44.3521L52.5229 45.5606ZM53.3828 46.6945C55.0521 48.8956 56.3092 51.2147 57.0468 53.5394L58.9532 52.9344C58.1349 50.3557 56.7584 47.8357 54.9764 45.4859L53.3828 46.6945ZM57.1806 52.6636L43.1806 72.6728L44.8194 73.8194L58.8194 53.8102L57.1806 52.6636ZM52.9177 45.5787C52.8093 45.6973 52.62 45.6886 52.5229 45.5606L54.1165 44.3521C53.4588 43.4849 52.1759 43.426 51.4415 44.2294L52.9177 45.5787Z" fill="#2C5857"/>
<path d="M63.2185 51.5703C63.6422 51.4015 64.1152 51.6579 64.2051 52.105L64.479 53.4673C66.6402 64.2167 62.2945 74.2461 47.3601 74.2461H45C44.4477 74.2461 44 73.7984 44 73.2461V66.583C44 60.8232 47.9887 55.9905 53.3676 54.6702C54.6186 54.3632 55.8629 54.0309 57.0979 53.6685C59.1685 53.0611 61.2129 52.3691 63.2185 51.5703Z" fill="#A3E9DC" stroke="#2C5857" stroke-width="2"/>
</g>
<defs>
<filter id="filter0_f" x="0" y="0.693359" width="147" height="145.037" filterUnits="userSpaceOnUse" color-interpolation-filters="sRGB">
<feFlood flood-opacity="0" result="BackgroundImageFix"/>
<feBlend mode="normal" in="SourceGraphic" in2="BackgroundImageFix" result="shape"/>
<feGaussianBlur stdDeviation="19" result="effect1_foregroundBlur"/>
</filter>
<clipPath id="clip0">
<rect width="80" height="77.7887" fill="white" transform="translate(12 19.2461)"/>
</clipPath>
</defs>
</svg>
