<svg width="24" height="24" viewBox="0 0 24 24" fill="none" xmlns="http://www.w3.org/2000/svg">
<path fill-rule="evenodd" clip-rule="evenodd" d="M19.4923 4.51694C19.9457 4.97017 20.2995 5.51306 20.531 6.11088C20.7979 6.82013 20.9404 7.57016 20.952 8.32788C21.008 9.28488 21.008 9.59488 21.008 12.0379C21.008 14.4809 20.995 14.7859 20.952 15.7479C20.937 16.4959 20.796 17.2339 20.533 17.9339C20.3012 18.5316 19.9473 19.0745 19.494 19.5279C19.0406 19.9812 18.4978 20.3351 17.9 20.5669C17.2002 20.829 16.4611 20.9707 15.714 20.9859C14.759 21.0409 14.446 21.0409 12.004 21.0409C9.562 21.0409 9.257 21.0279 8.294 20.9859C7.54537 20.9613 6.80643 20.8091 6.109 20.5359C5.51106 20.3045 4.96798 19.9509 4.51444 19.4977C4.0609 19.0445 3.70688 18.5016 3.475 17.9039C3.212 17.2029 3.071 16.4649 3.056 15.7169C3 14.7599 3 14.4489 3 12.0069C3 9.56388 3.013 9.25888 3.056 8.29688C3.07061 7.54972 3.2123 6.8105 3.475 6.11088C3.70623 5.51291 4.0599 4.96987 4.51333 4.51661C4.96676 4.06335 5.50994 3.70988 6.108 3.47888C6.80676 3.21548 7.54539 3.07344 8.292 3.05888C9.247 3.00488 9.56 3.00488 12.002 3.00488C14.444 3.00488 14.749 3.01688 15.712 3.05888C16.4592 3.07422 17.1983 3.21624 17.898 3.47888C18.4959 3.71015 19.0389 4.06372 19.4923 4.51694ZM19.002 17.3309C19.2014 16.7901 19.3066 16.2192 19.313 15.6429V15.6439H19.324C19.367 14.6879 19.367 14.4259 19.367 11.9899C19.367 9.55288 19.356 9.28588 19.313 8.33488C19.3037 7.76504 19.1986 7.20083 19.002 6.66588C18.8517 6.27695 18.6218 5.92374 18.327 5.62891C18.0321 5.33408 17.6789 5.10416 17.29 4.95388C16.7554 4.75495 16.1904 4.64974 15.62 4.64288C14.653 4.58788 14.403 4.58788 11.966 4.58788C9.529 4.58788 9.262 4.59988 8.311 4.64288C7.74102 4.65085 7.17659 4.75602 6.642 4.95388C5.853 5.25588 5.228 5.87688 4.923 6.66588C4.72366 7.2063 4.61846 7.77691 4.612 8.35288C4.559 9.32187 4.559 9.57088 4.559 12.0078C4.559 14.4438 4.569 14.7119 4.612 15.6619C4.62131 16.2317 4.72645 16.7959 4.923 17.3309C5.07384 17.7205 5.30478 18.0741 5.60089 18.3688C5.897 18.6636 6.25169 18.8929 6.642 19.0419C7.17633 19.2407 7.74093 19.3459 8.311 19.3529C9.279 19.4079 9.528 19.4079 11.966 19.4079C12.1473 19.4079 12.3166 19.4078 12.475 19.4077V13.1499H11.3711C10.8188 13.1499 10.3711 12.696 10.3711 12.1437C10.3711 11.5914 10.8188 11.1376 11.3711 11.1376H12.475V9.65429C12.475 8.80989 12.6757 8.15652 13.077 7.69388C13.4783 7.23125 14.0137 7 14.6833 7C14.9641 7 15.3362 7.0085 15.6779 7.02342C16.1525 7.04413 16.498 7.4346 16.498 7.90963C16.498 8.44676 16.0626 8.88219 15.5255 8.88219H15.097C14.7622 8.88219 14.5369 8.96322 14.4212 9.12512C14.3054 9.28702 14.2476 9.52995 14.2476 9.85375V11.1376H15.4836C16.0792 11.1376 16.5421 11.6618 16.4769 12.2538C16.4211 12.7607 15.9922 13.1499 15.4823 13.1499H14.2476V19.3985C14.7999 19.3905 15.1127 19.3764 15.62 19.3529C16.1904 19.3455 16.7552 19.2403 17.29 19.0419C17.679 18.8919 18.0322 18.6622 18.3271 18.3676C18.6219 18.0729 18.8518 17.7198 19.002 17.3309Z" fill="#2C5857"/>
</svg>
