<svg width="38" height="38" viewBox="0 0 38 38" fill="none" xmlns="http://www.w3.org/2000/svg">
<path d="M4.35156 30.4L4.35156 30.4003C4.35336 31.7252 5.03581 32.9523 6.15156 33.654V35C6.15156 36.2979 7.20369 37.35 8.50156 37.35C9.79943 37.35 10.8516 36.2979 10.8516 35V34.25H24.7516V35C24.7516 36.2979 25.8037 37.35 27.1016 37.35C28.3994 37.35 29.4516 36.2979 29.4516 35V33.654C30.5673 32.9523 31.2498 31.7252 31.2516 30.4003V30.4V27.05H31.9016C33.0338 27.05 33.9516 26.1322 33.9516 25V21.4C33.9516 20.2678 33.0338 19.35 31.9016 19.35H31.2516V11.45H31.9016C33.0338 11.45 33.9516 10.5322 33.9516 9.4V5.8C33.9516 4.66782 33.0338 3.75 31.9016 3.75H31.1528C30.758 2.0074 29.2074 0.753352 27.402 0.75H27.4016L8.20156 0.75L8.20131 0.75C6.07603 0.752122 4.35368 2.47447 4.35156 4.59975V4.6L4.35156 30.4ZM9.15156 35C9.15156 35.359 8.86055 35.65 8.50156 35.65C8.14258 35.65 7.85156 35.359 7.85156 35V34.25H9.15156V35ZM27.7516 34.25V35C27.7516 35.359 27.4606 35.65 27.1016 35.65C26.7426 35.65 26.4516 35.359 26.4516 35V34.25H27.7516ZM31.9016 21.05C32.0949 21.05 32.2516 21.2067 32.2516 21.4V25C32.2516 25.1933 32.0949 25.35 31.9016 25.35H31.2516V21.05H31.9016ZM29.5516 20.2V30.4C29.5516 31.5874 28.589 32.55 27.4016 32.55H8.20156C7.01415 32.55 6.05156 31.5874 6.05156 30.4V13.85H29.5516V20.2ZM32.2516 5.8V9.4C32.2516 9.5933 32.0949 9.75 31.9016 9.75H31.2516V5.45H31.9016C32.0949 5.45 32.2516 5.6067 32.2516 5.8ZM8.20156 2.45H27.4016C28.589 2.45 29.5516 3.41259 29.5516 4.6V12.15H6.05156V4.6C6.05156 3.41259 7.01415 2.45 8.20156 2.45Z" fill="#414042" stroke="#414042" stroke-width="0.5"/>
<path d="M9.8 20.1498C9.6067 20.1498 9.45 19.9931 9.45 19.7998V17.5998C9.45 17.4065 9.6067 17.2498 9.8 17.2498C10.2694 17.2498 10.65 16.8692 10.65 16.3998C10.65 15.9304 10.2694 15.5498 9.8 15.5498C8.66782 15.5498 7.75 16.4676 7.75 17.5998V19.7998C7.75 20.932 8.66782 21.8498 9.8 21.8498C10.2694 21.8498 10.65 21.4692 10.65 20.9998C10.65 20.5304 10.2694 20.1498 9.8 20.1498Z" fill="#414042" stroke="#414042" stroke-width="0.5"/>
<path d="M9.8 10.4504C10.2694 10.4504 10.65 10.0698 10.65 9.60039C10.65 9.13095 10.2694 8.75039 9.8 8.75039C9.6067 8.75039 9.45 8.59369 9.45 8.40039V6.20039C9.45 6.00709 9.6067 5.85039 9.8 5.85039C10.2694 5.85039 10.65 5.46983 10.65 5.00039C10.65 4.53095 10.2694 4.15039 9.8 4.15039C8.66782 4.15039 7.75 5.06821 7.75 6.20039V8.40039C7.75 9.53257 8.66782 10.4504 9.8 10.4504Z" fill="#414042" stroke="#414042" stroke-width="0.5"/>
</svg>
