<svg width="38" height="38" viewBox="0 0 38 38" fill="none" xmlns="http://www.w3.org/2000/svg">
<path d="M4.35156 30.4L4.35156 30.4003C4.35336 31.7252 5.03581 32.9523 6.15156 33.654V35C6.15156 36.2979 7.20369 37.35 8.50156 37.35C9.79943 37.35 10.8516 36.2979 10.8516 35V34.25H24.7516V35C24.7516 36.2979 25.8037 37.35 27.1016 37.35C28.3994 37.35 29.4516 36.2979 29.4516 35V33.654C30.5673 32.9523 31.2498 31.7252 31.2516 30.4003V30.4V27.05H31.9016C33.0338 27.05 33.9516 26.1322 33.9516 25V21.4C33.9516 20.2678 33.0338 19.35 31.9016 19.35H31.2516V11.45H31.9016C33.0338 11.45 33.9516 10.5322 33.9516 9.4V5.8C33.9516 4.66782 33.0338 3.75 31.9016 3.75H31.1528C30.758 2.0074 29.2074 0.753352 27.402 0.75H27.4016L8.20156 0.75L8.20131 0.75C6.07603 0.752122 4.35368 2.47447 4.35156 4.59975V4.6L4.35156 30.4ZM9.15156 35C9.15156 35.359 8.86055 35.65 8.50156 35.65C8.14258 35.65 7.85156 35.359 7.85156 35V34.25H9.15156V35ZM27.7516 34.25V35C27.7516 35.359 27.4606 35.65 27.1016 35.65C26.7426 35.65 26.4516 35.359 26.4516 35V34.25H27.7516ZM31.9016 21.05C32.0949 21.05 32.2516 21.2067 32.2516 21.4V25C32.2516 25.1933 32.0949 25.35 31.9016 25.35H31.2516V21.05H31.9016ZM29.5516 20.2V30.4C29.5516 31.5874 28.589 32.55 27.4016 32.55H8.20156C7.01415 32.55 6.05156 31.5874 6.05156 30.4V13.85H29.5516V20.2ZM32.2516 5.8V9.4C32.2516 9.5933 32.0949 9.75 31.9016 9.75H31.2516V5.45H31.9016C32.0949 5.45 32.2516 5.6067 32.2516 5.8ZM8.20156 2.45H27.4016C28.589 2.45 29.5516 3.41259 29.5516 4.6V12.15H6.05156V4.6C6.05156 3.41259 7.01415 2.45 8.20156 2.45Z" fill="#414042" stroke="#414042" stroke-width="0.5"/>
<path d="M21.7916 19.7562L21.7916 19.7563L21.4704 20.9729L22.6586 21.2963C22.8864 21.3533 23.0657 21.5288 23.1273 21.7554C23.1891 21.9826 23.1228 22.2254 22.9542 22.3898C22.7861 22.5537 22.5425 22.6139 22.3174 22.5475L20.7716 22.1268L19.2829 22.9999L20.7716 23.8712L22.3174 23.4505C22.5425 23.3841 22.7861 23.4443 22.9542 23.6082C23.1228 23.7726 23.1891 24.0154 23.1273 24.2426C23.0657 24.4692 22.8864 24.6447 22.6586 24.7017L21.4704 25.0251L21.7916 26.2418L21.7916 26.2418C21.8355 26.4081 21.8115 26.5851 21.7248 26.7337C21.6382 26.8823 21.4961 26.9904 21.3298 27.0343C21.3298 27.0343 21.3297 27.0343 21.3296 27.0343L21.2914 26.8893C21.2497 26.9003 21.2068 26.9058 21.1637 26.9057L21.7916 19.7562ZM21.7916 19.7562C21.8507 19.5321 21.7858 19.2936 21.6212 19.1304C21.4566 18.9672 21.2174 18.9042 20.9938 18.965C20.7701 19.0259 20.5959 19.2013 20.5368 19.4254L20.5368 19.4255M21.7916 19.7562L20.5368 19.4255M20.5368 19.4255L20.1201 21.0073L18.6488 21.868V20.1249L19.7861 18.9691C19.9579 18.8062 20.0274 18.5625 19.967 18.3334C19.9063 18.1032 19.7245 17.9248 19.4932 17.8685C19.2631 17.8124 19.0207 17.8862 18.8609 18.0608L18 18.9344L17.1391 18.0608C16.9793 17.8862 16.7369 17.8124 16.5068 17.8685C16.2755 17.9248 16.0937 18.1032 16.033 18.3334C15.9726 18.5625 16.0421 18.8062 16.2139 18.9691L17.3512 20.1249V21.868L15.8799 21.0073L15.4632 19.4274L15.4632 19.4274M20.5368 19.4255L15.4632 19.4274M15.4632 19.4274C15.4041 19.2033 15.2299 19.0278 15.0062 18.967C14.7826 18.9062 14.5434 18.9692 14.3788 19.1324C14.2142 19.2956 14.1492 19.5341 14.2084 19.7582L14.2084 19.7582M15.4632 19.4274L14.2084 19.7582M14.2084 19.7582L14.5296 20.9749L13.3414 21.2983C13.1136 21.3553 12.9343 21.5308 12.8727 21.7574C12.8109 21.9846 12.8772 22.2274 13.0458 22.3918C13.2139 22.5557 13.4575 22.6159 13.6826 22.5495L15.2284 22.1288L16.7171 23.0001L15.2283 23.8733L13.6825 23.454C13.4574 23.3876 13.2139 23.4478 13.0458 23.6117C12.8772 23.7761 12.8109 24.0189 12.8727 24.2461C12.9343 24.4727 13.1136 24.6482 13.3414 24.7052L14.5296 25.0286L14.2084 26.2452L14.2084 26.2453M14.2084 19.7582L14.2084 26.2453M14.2084 26.2453C14.1645 26.4116 14.1885 26.5886 14.2752 26.7372C14.3618 26.8859 14.504 26.994 14.6704 27.0378L14.7086 26.8928M14.2084 26.2453L15.4632 26.5761M15.4632 26.5761L15.4632 26.5761C15.3881 26.8606 15.1309 27.0589 14.8366 27.0592C14.7804 27.0594 14.7244 27.0522 14.6701 27.0377L14.7086 26.8928M15.4632 26.5761L15.88 24.9961L15.4632 26.5761ZM14.7086 26.8928C14.7503 26.9038 14.7932 26.9094 14.8363 26.9092L14.3534 26.2835C14.3197 26.4114 14.3381 26.5474 14.4047 26.6617C14.4714 26.7759 14.5807 26.8591 14.7086 26.8928Z" fill="#414042" stroke="#414042" stroke-width="0.3"/>
<path d="M9.8 20.1498C9.6067 20.1498 9.45 19.9931 9.45 19.7998V17.5998C9.45 17.4065 9.6067 17.2498 9.8 17.2498C10.2694 17.2498 10.65 16.8692 10.65 16.3998C10.65 15.9304 10.2694 15.5498 9.8 15.5498C8.66782 15.5498 7.75 16.4676 7.75 17.5998V19.7998C7.75 20.932 8.66782 21.8498 9.8 21.8498C10.2694 21.8498 10.65 21.4692 10.65 20.9998C10.65 20.5304 10.2694 20.1498 9.8 20.1498Z" fill="#414042" stroke="#414042" stroke-width="0.5"/>
<path d="M9.8 10.4504C10.2694 10.4504 10.65 10.0698 10.65 9.60039C10.65 9.13095 10.2694 8.75039 9.8 8.75039C9.6067 8.75039 9.45 8.59369 9.45 8.40039V6.20039C9.45 6.00709 9.6067 5.85039 9.8 5.85039C10.2694 5.85039 10.65 5.46983 10.65 5.00039C10.65 4.53095 10.2694 4.15039 9.8 4.15039C8.66782 4.15039 7.75 5.06821 7.75 6.20039V8.40039C7.75 9.53257 8.66782 10.4504 9.8 10.4504Z" fill="#414042" stroke="#414042" stroke-width="0.5"/>
</svg>
