<svg width="24" height="24" viewBox="0 0 24 24" fill="none" xmlns="http://www.w3.org/2000/svg">
<path d="M11.999 7.37695C10.7726 7.37695 9.59651 7.86412 8.72934 8.73129C7.86217 9.59846 7.375 10.7746 7.375 12.001C7.375 13.2273 7.86217 14.4034 8.72934 15.2706C9.59651 16.1378 10.7726 16.625 11.999 16.625C13.2254 16.625 14.4015 16.1378 15.2687 15.2706C16.1358 14.4034 16.623 13.2273 16.623 12.001C16.623 10.7746 16.1358 9.59846 15.2687 8.73129C14.4015 7.86412 13.2254 7.37695 11.999 7.37695ZM11.999 15.004C11.2023 15.004 10.4382 14.6875 9.87485 14.1241C9.31149 13.5607 8.995 12.7967 8.995 12C8.995 11.2032 9.31149 10.4392 9.87485 9.8758C10.4382 9.31245 11.2023 8.99595 11.999 8.99595C12.7957 8.99595 13.5598 9.31245 14.1231 9.8758C14.6865 10.4392 15.003 11.2032 15.003 12C15.003 12.7967 14.6865 13.5607 14.1231 14.1241C13.5598 14.6875 12.7957 15.004 11.999 15.004Z" fill="white"/>
<path d="M16.8046 8.28491C17.3999 8.28491 17.8826 7.80227 17.8826 7.20691C17.8826 6.61154 17.3999 6.12891 16.8046 6.12891C16.2092 6.12891 15.7266 6.61154 15.7266 7.20691C15.7266 7.80227 16.2092 8.28491 16.8046 8.28491Z" fill="white"/>
<path d="M20.5349 6.11088C20.3034 5.51306 19.9496 4.97017 19.4962 4.51694C19.0428 4.06372 18.4998 3.71015 17.9019 3.47888C17.2022 3.21624 16.4631 3.07422 15.7159 3.05888C14.7529 3.01688 14.4479 3.00488 12.0059 3.00488C9.56391 3.00488 9.25091 3.00488 8.29591 3.05888C7.54929 3.07344 6.81066 3.21548 6.11191 3.47888C5.51384 3.70988 4.97067 4.06335 4.51724 4.51661C4.06381 4.96987 3.71013 5.51291 3.47891 6.11088C3.21621 6.8105 3.07452 7.54972 3.05991 8.29688C3.01691 9.25888 3.00391 9.56388 3.00391 12.0069C3.00391 14.4489 3.00391 14.7599 3.05991 15.7169C3.07491 16.4649 3.21591 17.2029 3.47891 17.9039C3.71078 18.5016 4.0648 19.0445 4.51834 19.4977C4.97188 19.9509 5.51497 20.3045 6.11291 20.5359C6.81034 20.8091 7.54928 20.9613 8.29791 20.9859C9.26091 21.0279 9.56591 21.0409 12.0079 21.0409C14.4499 21.0409 14.7629 21.0409 15.7179 20.9859C16.465 20.9707 17.2041 20.829 17.9039 20.5669C18.5017 20.3351 19.0445 19.9812 19.4979 19.5279C19.9512 19.0745 20.3051 18.5316 20.5369 17.9339C20.7999 17.2339 20.9409 16.4959 20.9559 15.7479C20.9989 14.7859 21.0119 14.4809 21.0119 12.0379C21.0119 9.59488 21.0119 9.28488 20.9559 8.32788C20.9443 7.57016 20.8018 6.82013 20.5349 6.11088ZM19.3169 15.6429C19.3105 16.2192 19.2053 16.7901 19.0059 17.3309C18.8557 17.7198 18.6258 18.0729 18.331 18.3676C18.0361 18.6622 17.6829 18.8919 17.2939 19.0419C16.7591 19.2403 16.1943 19.3455 15.6239 19.3529C14.6739 19.3969 14.4059 19.4079 11.9699 19.4079C9.53191 19.4079 9.28291 19.4079 8.31491 19.3529C7.74483 19.3459 7.18023 19.2407 6.64591 19.0419C6.25559 18.8929 5.90091 18.6636 5.6048 18.3688C5.30868 18.0741 5.07774 17.7205 4.92691 17.3309C4.73035 16.7959 4.62522 16.2317 4.61591 15.6619C4.57291 14.7119 4.56291 14.4439 4.56291 12.0079C4.56291 9.57088 4.56291 9.32188 4.61591 8.35288C4.62237 7.77691 4.72756 7.2063 4.92691 6.66588C5.23191 5.87688 5.85691 5.25588 6.64591 4.95388C7.1805 4.75602 7.74493 4.65085 8.31491 4.64288C9.26591 4.59988 9.53291 4.58788 11.9699 4.58788C14.4069 4.58788 14.6569 4.58788 15.6239 4.64288C16.1943 4.64974 16.7593 4.75495 17.2939 4.95388C17.6828 5.10416 18.036 5.33408 18.3309 5.62891C18.6257 5.92374 18.8556 6.27695 19.0059 6.66588C19.2025 7.20083 19.3076 7.76504 19.3169 8.33488C19.3599 9.28588 19.3709 9.55288 19.3709 11.9899C19.3709 14.4259 19.3709 14.6879 19.3279 15.6439H19.3169V15.6429Z" fill="white"/>
</svg>
