<svg width="39" height="38" viewBox="0 0 39 38" fill="none" xmlns="http://www.w3.org/2000/svg">
<path d="M12.0296 2.49034C11.4937 2.77424 11.168 3.28334 11.1652 3.82492V9.73779C11.1671 10.8952 11.4702 12.0379 12.0528 13.0767L12.0296 2.49034ZM12.0296 2.49034V9.2825V9.5325H12.2796H13.6441H13.8941V9.2825V2.25492H14.7585V9.2825V9.5325H15.0085H16.3729H16.6229V9.2825V2.49034C17.1588 2.77423 17.4846 3.28332 17.4874 3.8249L17.4874 9.73821C17.4874 9.73833 17.4874 9.73845 17.4874 9.73856C17.4857 10.8956 17.1828 12.038 16.6005 13.0766C15.8364 14.4368 15.4609 15.9458 15.5091 17.4692L15.5091 17.4695L16.0549 34.1715L16.0549 34.1716C16.0679 34.5669 15.9001 34.9569 15.5779 35.25C14.8853 35.8507 13.7697 35.8507 13.0772 35.2498C12.7545 34.9577 12.5858 34.5686 12.5977 34.1736C12.5977 34.1736 12.5977 34.1735 12.5978 34.1734L13.1435 17.4701L13.1435 17.4699C13.1921 15.9464 12.8167 14.4372 12.0529 13.0768L12.0296 2.49034ZM15.691 0.541992H15.6907L12.9619 0.541992L12.9616 0.541992C10.9692 0.544078 9.30322 1.98555 9.30078 3.82399V3.82432L9.30078 9.73796L9.30078 9.73836C9.30307 11.1714 9.67841 12.5832 10.3956 13.8628L10.3957 13.863C11.0157 14.9673 11.3185 16.1885 11.2793 17.4186C11.2793 17.4186 11.2793 17.4187 11.2793 17.4188L10.7336 34.1232C10.7336 34.1235 10.7336 34.1238 10.7336 34.124C10.663 35.9297 12.2447 37.3959 14.1996 37.4567C16.1538 37.5175 17.8439 36.1546 17.9149 34.3507C17.9178 34.2751 17.9178 34.1995 17.9149 34.1239C17.9149 34.1236 17.9149 34.1234 17.9149 34.1231L17.3692 17.4205C17.3301 16.1909 17.633 14.9704 18.2528 13.8666C18.972 12.5863 19.3488 11.1734 19.3518 9.73901V9.73849V3.82432V3.82399C19.3494 1.98554 17.6834 0.544158 15.691 0.541992Z" fill="#414042" stroke="#414042" stroke-width="0.5"/>
<path d="M29.113 18.9822V1.39892C29.113 0.902381 28.6755 0.542373 28.1911 0.542019C28.1909 0.542019 28.1906 0.542018 28.1904 0.542018V0.792018C25.8819 0.785418 23.8042 2.05461 22.9535 3.99101M29.113 18.9822L22.6845 17.0825C21.0016 12.8351 21.0972 8.17918 22.9535 3.99101M29.113 18.9822L29.6953 34.1427M29.113 18.9822L29.6953 34.1427M22.9535 3.99101L22.725 3.88971C22.7249 3.88984 22.7249 3.88997 22.7248 3.8901M22.9535 3.99101L22.7246 3.89046C22.7247 3.89034 22.7247 3.89022 22.7248 3.8901M22.7248 3.8901C20.8416 8.1393 20.7444 12.8647 22.452 17.1746C22.4521 17.1746 22.4521 17.1746 22.4521 17.1746M22.7248 3.8901L22.4521 17.1746M22.4521 17.1746L23.229 19.1369L22.6553 34.1426L22.6553 34.1428L22.9051 34.1523C22.8416 35.782 24.2543 37.1495 26.0603 37.2068C27.8664 37.2641 29.382 35.9894 29.4454 34.3597C29.4481 34.2906 29.4481 34.2214 29.4454 34.1524L22.4521 17.1746ZM29.6953 34.1427C29.6953 34.1427 29.6953 34.1428 29.6953 34.1428L29.6953 34.1427ZM24.431 4.54336L24.4314 4.54248C24.9158 3.43981 25.9761 2.61754 27.2678 2.3496V18.1422H24.7955L24.1781 16.5827C22.6317 12.676 22.7215 8.39501 24.431 4.54336ZM24.4987 34.2043L24.4988 34.2031L25.0452 19.8561H27.3L27.8484 34.2031L27.8485 34.204C27.8649 34.5974 27.703 34.9856 27.3899 35.2771C26.7171 35.8743 25.6283 35.8743 24.9554 35.2772C24.6431 34.9855 24.4819 34.5975 24.4987 34.2043Z" fill="#414042" stroke="#414042" stroke-width="0.5"/>
</svg>
