<svg width="14" height="15" viewBox="0 0 14 15" fill="none" xmlns="http://www.w3.org/2000/svg">
<path fill-rule="evenodd" clip-rule="evenodd" d="M1.90672 2.87373C1.90805 2.87373 1.87472 2.90839 1.83272 2.94973C1.67139 3.10639 1.33739 3.43239 1.33405 4.11439C1.32872 5.06839 1.95605 6.83973 4.97672 9.85972C7.98338 12.8651 9.75205 13.4997 10.708 13.4997H10.722C11.404 13.4964 11.7294 13.1617 11.8867 13.0011C11.9347 12.9517 11.9734 12.9157 12.0007 12.8931C12.6647 12.2251 13.0047 11.7277 13.0014 11.4091C12.9967 11.0837 12.592 10.6991 12.0327 10.1671C11.8547 9.99772 11.6614 9.81372 11.4574 9.60972C10.9287 9.08239 10.6667 9.17239 10.0907 9.37506C9.29405 9.65439 8.20072 10.0344 6.50205 8.33506C4.80072 6.63506 5.18138 5.54306 5.46005 4.74639C5.66138 4.17039 5.75339 3.90773 5.22405 3.37839C5.01672 3.17173 4.83072 2.97573 4.65939 2.79573C4.13072 2.23973 3.74939 1.83773 3.42605 1.83306H3.42072C3.10139 1.83306 2.60539 2.17439 1.90339 2.87639C1.90539 2.87439 1.90605 2.87373 1.90672 2.87373ZM10.7087 14.4998C9.04737 14.4998 6.88137 13.1771 4.27004 10.5671C1.64871 7.94644 0.324041 5.77378 0.334041 4.10911C0.340041 3.00911 0.916707 2.44578 1.13337 2.23444C1.14471 2.22044 1.18337 2.18244 1.19671 2.16911C2.15271 1.21244 2.79737 0.825777 3.43871 0.83311C4.18337 0.84311 4.71337 1.40044 5.38404 2.10644C5.55004 2.28111 5.73004 2.47111 5.93071 2.67111C6.90404 3.64444 6.62671 4.43844 6.40404 5.07578C6.16137 5.77111 5.95137 6.37111 7.20871 7.62844C8.46737 8.88578 9.06737 8.67578 9.76004 8.43111C10.398 8.20844 11.19 7.92978 12.1647 8.90311C12.362 9.10044 12.5494 9.27844 12.722 9.44311C13.4314 10.1171 13.9914 10.6498 14.0007 11.3964C14.0087 12.0331 13.622 12.6818 12.6674 13.6371L12.2447 13.3504L12.602 13.6998C12.3907 13.9164 11.828 14.4938 10.7274 14.4998H10.7087Z" fill="white"/>
</svg>
