<svg width="36" height="36" viewBox="0 0 36 36" fill="none" xmlns="http://www.w3.org/2000/svg">
<path d="M17.6152 4.29392L17.6152 4.29393L3.71268 18.1965C2.93129 18.9779 2.5 20.0189 2.5 21.1275C2.5 22.2315 2.93154 23.2724 3.71268 24.0536L11.9464 32.2873C12.7278 33.0687 13.7688 33.5 14.8775 33.5C15.9815 33.5 17.0224 33.0685 17.8035 32.2873L31.706 18.3848C32.8623 17.2285 33.5 15.6888 33.5 14.0538V6.12498C33.5 4.12636 31.8736 2.5 29.875 2.5H21.9462C20.3111 2.5 18.7715 3.13767 17.6152 4.29392ZM5.30355 22.4614L5.30307 22.461C4.9464 22.1053 4.74998 21.6329 4.74998 21.1225C4.74998 20.6178 4.9459 20.1449 5.30353 19.7874L5.30355 19.7873L19.2058 5.88508C19.2058 5.88503 19.2059 5.88498 19.2059 5.88493C19.9399 5.15217 20.9103 4.74998 21.9462 4.74998H29.875C30.6326 4.74998 31.25 5.36735 31.25 6.12498V14.0538V14.0755C31.2444 15.1037 30.8425 16.0667 30.1165 16.7927L16.2127 30.6964C15.5085 31.4007 14.2487 31.4056 13.5383 30.6962L5.30355 22.4614Z" fill="#414042" stroke="#414042"/>
<path d="M26 6.5C24.0703 6.5 22.5 8.07027 22.5 10C22.5 11.9297 24.0703 13.5 26 13.5C27.9297 13.5 29.5 11.9298 29.5 10C29.5 8.07027 27.9297 6.5 26 6.5ZM26 11.3C25.2837 11.3 24.7 10.7163 24.7 10C24.7 9.28372 25.2837 8.69999 26 8.69999C26.7163 8.69999 27.3 9.28372 27.3 10C27.3 10.7163 26.7162 11.3 26 11.3Z" fill="#414042" stroke="#414042"/>
</svg>
