<svg width="36" height="36" viewBox="0 0 36 36" fill="none" xmlns="http://www.w3.org/2000/svg">
<g clip-path="url(#clip0)">
<path d="M35.1463 28.2933L35.1458 28.2904L32.4871 14.1983C32.487 14.1978 32.4869 14.1973 32.4868 14.1968C31.9148 10.9542 29.1161 8.59969 25.8312 8.59969H22.5247C22.9684 7.83046 23.2233 6.93835 23.2233 5.98748C23.2234 3.10001 20.8809 0.75 18 0.75C15.1191 0.75 12.7767 3.10002 12.7767 5.98755C12.7767 6.93843 13.0316 7.83053 13.4753 8.59976H10.1688C6.88393 8.59976 4.08517 10.9543 3.51317 14.1969C3.51308 14.1974 3.51299 14.1979 3.5129 14.1984L0.854257 28.2904L0.854239 28.2904L0.853713 28.2933C0.505312 30.2713 1.04385 32.2887 2.33107 33.8278L2.52283 33.6674L2.33107 33.8278C3.6184 35.3669 5.50615 36.25 7.50972 36.25H28.4904C30.494 36.25 32.3818 35.3669 33.669 33.8279C34.9563 32.2888 35.4946 30.2713 35.1463 28.2933ZM6.09185 14.6579L6.09187 14.6579L6.09239 14.6549C6.44267 12.6668 8.15727 11.225 10.1689 11.225H25.8313C27.843 11.225 29.5576 12.6667 29.9078 14.6547L29.9078 14.6547L29.9084 14.6577L32.567 28.7498C32.5671 28.7503 32.5672 28.7508 32.5673 28.7513C32.7803 29.9633 32.4502 31.1984 31.6618 32.1412C30.873 33.0843 29.7174 33.6247 28.4904 33.6247H7.50972C6.28277 33.6247 5.12712 33.0843 4.33839 32.1412C3.54991 31.1984 3.21987 29.9633 3.43295 28.7513C3.43304 28.7508 3.43312 28.7504 3.43321 28.7499L6.09185 14.6579ZM18 3.37534C19.435 3.37534 20.604 4.54671 20.604 5.98755C20.604 7.42838 19.4349 8.59976 18 8.59976C16.5651 8.59976 15.396 7.42838 15.396 5.98755C15.396 4.54671 16.565 3.37534 18 3.37534Z" fill="#414042" stroke="#414042" stroke-width="0.5"/>
<path d="M15.5707 17.6253L15.5707 17.6253C16.0172 17.1639 16.7533 17.1516 17.2148 17.5983C17.2148 17.5983 17.2148 17.5983 17.2148 17.5984L17.1453 17.6702C17.567 18.0784 17.5781 18.7511 17.17 19.1728L15.5707 17.6253ZM15.5707 17.6253L12.7645 20.525V18.4338C12.7645 17.7917 12.2439 17.2711 11.6018 17.2711C10.9596 17.2711 10.4391 17.7917 10.4391 18.4338V25.4152C10.4391 26.0573 10.9596 26.5779 11.6018 26.5779C12.2439 26.5779 12.7645 26.0573 12.7645 25.4152V23.3239L15.5707 26.2237C15.7987 26.4594 16.1025 26.5779 16.4064 26.5779C16.6973 26.5779 16.9891 26.4692 17.2148 26.2507L17.2148 26.2507C17.6762 25.8041 17.6882 25.0682 17.2418 24.6067L17.2418 24.6067L14.6462 21.9245L17.2418 19.2423L15.5707 17.6253Z" fill="#414042" stroke="#414042" stroke-width="0.2"/>
<path d="M24.5577 20.1736C24.0951 20.5347 23.4272 20.4523 23.0662 19.9898C22.8218 19.6768 22.4546 19.4973 22.0585 19.4973C21.3544 19.4973 20.7815 20.0702 20.7815 20.7743V23.0765C20.7815 23.7806 21.3544 24.3534 22.0585 24.3534C22.6551 24.3534 23.1574 23.9422 23.297 23.3883L24.5577 20.1736ZM24.5577 20.1736C25.0203 19.8124 25.1026 19.1446 24.7416 18.6821L24.5577 20.1736ZM23.1935 23.3883C23.0565 23.8864 22.5994 24.2534 22.0585 24.2534C21.4096 24.2534 20.8815 23.7253 20.8815 23.0765V20.7743C20.8815 20.1254 21.4096 19.5973 22.0585 19.5973C22.4237 19.5973 22.7619 19.7625 22.9873 20.0513L22.9874 20.0513C23.3824 20.5574 24.113 20.6475 24.6192 20.2524L24.6193 20.2524C25.1254 19.8573 25.2155 19.1267 24.8204 18.6205L24.8204 18.6205C24.1517 17.7638 23.1446 17.2721 22.0585 17.2721C20.1273 17.2721 18.5562 18.8431 18.5562 20.7744V23.0765C18.5562 25.0078 20.1273 26.5788 22.0585 26.5788C23.9898 26.5788 25.5608 25.0078 25.5608 23.0765V22.2257C25.5608 21.5835 25.0402 21.0629 24.3981 21.0629H22.8029C22.1607 21.0629 21.6402 21.5835 21.6402 22.2256C21.6402 22.8677 22.1607 23.3883 22.8029 23.3883H23.1935Z" fill="#414042" stroke="#414042" stroke-width="0.2"/>
</g>
<defs>
<clipPath id="clip0">
<rect width="36" height="36" fill="white"/>
</clipPath>
</defs>
</svg>
