<svg width="360" height="849" viewBox="0 0 360 849" fill="none" xmlns="http://www.w3.org/2000/svg">
<mask id="mask0" mask-type="alpha" maskUnits="userSpaceOnUse" x="0" y="0" width="360" height="849">
<path d="M360 0L360 849L-6.59339e-06 849L3.05176e-05 -1.57361e-05L360 0Z" fill="#FFF5E0"/>
</mask>
<g mask="url(#mask0)">
<rect x="485.594" y="-122.652" width="972.091" height="728.615" transform="rotate(90 485.594 -122.652)" fill="white"/>
<mask id="mask1" mask-type="alpha" maskUnits="userSpaceOnUse" x="-244" y="-123" width="730" height="973">
<rect x="485.594" y="-122.652" width="972.091" height="728.615" transform="rotate(90 485.594 -122.652)" fill="white"/>
</mask>
<g mask="url(#mask1)">
<path fill-rule="evenodd" clip-rule="evenodd" d="M121.285 363.393L1.06372 363.393L1.06372 243.097L121.285 243.097L121.285 363.393Z" fill="#2C5857"/>
<path fill-rule="evenodd" clip-rule="evenodd" d="M303.438 363.393C269.905 363.393 242.72 336.192 242.72 302.638L242.72 241.882L364.156 241.882L364.156 302.638C364.156 336.192 336.972 363.393 303.438 363.393Z" fill="#FECD76"/>
<path fill-rule="evenodd" clip-rule="evenodd" d="M60.5673 484.904C27.0337 484.904 -0.150625 457.703 -0.150622 424.149L-0.150617 363.393L60.5673 363.393C94.1008 363.393 121.285 390.594 121.285 424.149C121.285 457.703 94.1008 484.904 60.5673 484.904Z" fill="#FECD76"/>
<path fill-rule="evenodd" clip-rule="evenodd" d="M121.285 424.148C121.285 457.703 94.1008 484.904 60.5673 484.904L-0.150632 484.904L-0.15063 424.148C-0.150628 390.594 27.0337 363.393 60.5673 363.393C94.1008 363.393 121.285 390.594 121.285 424.148Z" fill="#FECD76"/>
<path fill-rule="evenodd" clip-rule="evenodd" d="M90.9258 424.756C90.9258 441.533 77.3336 455.134 60.5668 455.134L30.2079 455.134L30.2079 424.756C30.2079 407.979 43.8001 394.378 60.5668 394.378C77.3336 394.378 90.9258 407.979 90.9258 424.756Z" fill="#66A69C"/>
<path d="M121.287 545.66C121.287 579.214 94.103 606.416 60.5695 606.416L-0.148438 606.416L-0.148438 545.66C-0.148438 512.106 27.0359 484.904 60.5695 484.904C94.103 484.904 121.287 512.106 121.287 545.66Z" fill="#2C5857"/>
<path fill-rule="evenodd" clip-rule="evenodd" d="M60.5668 576.645C43.8 576.645 30.2079 563.045 30.2079 546.267L30.2079 515.89L60.5668 515.89C77.3336 515.89 90.9258 529.49 90.9258 546.267C90.9258 563.045 77.3336 576.645 60.5668 576.645Z" fill="#FECD76"/>
<path fill-rule="evenodd" clip-rule="evenodd" d="M303.442 332.408C286.675 332.408 273.083 318.807 273.083 302.03L273.083 271.652L303.442 271.652C320.209 271.652 333.801 285.253 333.801 302.03C333.801 318.807 320.209 332.408 303.442 332.408Z" fill="#ECAA35"/>
<path fill-rule="evenodd" clip-rule="evenodd" d="M242.723 484.904C242.723 552.013 188.493 606.415 121.597 606.415L121.287 606.415L121.287 363.393L121.597 363.393C188.493 363.393 242.723 417.795 242.723 484.904Z" fill="#66A69C"/>
<path d="M-0.150625 363.393C-67.2177 363.393 -121.586 308.991 -121.586 241.882L121.285 241.882C121.285 308.991 66.9165 363.393 -0.150625 363.393Z" fill="#2C5857"/>
<path fill-rule="evenodd" clip-rule="evenodd" d="M121.287 727.927C121.287 660.818 66.9187 606.416 -0.148424 606.416L-0.148437 849.438C66.9187 849.438 121.287 795.036 121.287 727.927Z" fill="#FECD76"/>
<path fill-rule="evenodd" clip-rule="evenodd" d="M243.027 485.208C243.027 418.099 297.124 363.697 363.855 363.697L363.855 606.72C297.124 606.72 243.027 552.317 243.027 485.208Z" fill="#ECAA35"/>
<path fill-rule="evenodd" clip-rule="evenodd" d="M121.285 120.37L121.285 241.881L-0.150632 241.881L-0.150627 120.37L121.285 120.37Z" fill="#ECAA35"/>
<path fill-rule="evenodd" clip-rule="evenodd" d="M242.723 727.927L121.287 727.927L121.287 849.438L242.723 849.438L242.723 727.927Z" fill="#78BFB2"/>
<path fill-rule="evenodd" clip-rule="evenodd" d="M121.285 181.733L60.5673 242.489L-0.15063 181.733L60.5673 120.978L121.285 181.733Z" fill="#FECD76"/>
<path fill-rule="evenodd" clip-rule="evenodd" d="M212.363 788.075L182.004 818.453L151.645 788.075L182.004 757.697L212.363 788.075Z" fill="#FECD76"/>
<path d="M333.801 484.904L303.442 515.282L273.083 484.904L303.442 454.526L333.801 484.904Z" fill="white"/>
<path fill-rule="evenodd" clip-rule="evenodd" d="M303.438 120.371C269.905 120.371 242.72 93.1695 242.72 59.615L242.72 -1.14063L364.156 -1.14062L364.156 59.615C364.156 93.1695 336.972 120.371 303.438 120.371Z" fill="#66A69C"/>
<path fill-rule="evenodd" clip-rule="evenodd" d="M242.723 59.615C242.723 93.1695 215.538 120.371 182.005 120.371C148.471 120.371 121.287 93.1695 121.287 59.615L121.287 -1.14063L182.005 -1.14063C215.538 -1.14063 242.723 26.0606 242.723 59.615Z" fill="#FECD76"/>
<path d="M242.723 181.126C242.723 214.68 215.538 241.881 182.005 241.881L121.287 241.881L121.287 181.126C121.287 147.571 148.471 120.37 182.005 120.37C215.538 120.37 242.723 147.571 242.723 181.126Z" fill="#2C5857"/>
<path fill-rule="evenodd" clip-rule="evenodd" d="M364.158 120.37C431.225 120.37 485.594 174.773 485.594 241.881L242.722 241.881C242.722 174.773 297.091 120.37 364.158 120.37Z" fill="#66A69C"/>
<path fill-rule="evenodd" clip-rule="evenodd" d="M-0.150627 -1.14063L121.285 -1.14062L121.285 120.371L-0.150627 -1.14063Z" fill="#66A69C"/>
<path fill-rule="evenodd" clip-rule="evenodd" d="M364.156 849.438L364.156 727.927L242.72 727.927L364.156 849.438Z" fill="#66A69C"/>
<path d="M-0.148438 363.393L-0.148422 241.881L121.287 241.881L-0.148438 363.393Z" fill="#78BFB2"/>
<path d="M242.72 606.415C309.788 606.415 364.156 660.818 364.156 727.927L121.285 727.927C121.285 660.818 175.653 606.415 242.72 606.415Z" fill="#2C5857"/>
<path d="M242.723 302.638C242.723 336.192 215.538 363.393 182.005 363.393C148.471 363.393 121.287 336.192 121.287 302.638L121.287 241.882L182.005 241.882C215.538 241.882 242.723 269.083 242.723 302.638Z" fill="#78BFB2"/>
<path fill-rule="evenodd" clip-rule="evenodd" d="M303.442 89.993C286.675 89.993 273.083 76.3923 273.083 59.6151L273.083 29.2373L303.442 29.2373C320.209 29.2373 333.801 42.8379 333.801 59.6151C333.801 76.3923 320.209 89.993 303.442 89.993Z" fill="#FECD76"/>
<path fill-rule="evenodd" clip-rule="evenodd" d="M151.645 484.904C151.645 501.681 165.238 515.282 182.004 515.282C198.771 515.282 212.363 501.681 212.363 484.904C212.363 468.127 198.771 454.526 182.004 454.526C165.238 454.526 151.645 468.127 151.645 484.904Z" fill="#FECD76"/>
<path fill-rule="evenodd" clip-rule="evenodd" d="M151.645 59.6151C151.645 76.3923 165.238 89.993 182.004 89.993C198.771 89.993 212.363 76.3923 212.363 59.6151C212.363 42.8379 198.771 29.2373 182.004 29.2373C165.238 29.2373 151.645 42.8379 151.645 59.6151Z" fill="#ECAA35"/>
<path fill-rule="evenodd" clip-rule="evenodd" d="M212.363 302.03L182.004 332.408L151.645 302.03L182.004 271.652L212.363 302.03Z" fill="#66A69C"/>
<path d="M121.285 58.3992L60.5673 119.155L-0.15063 58.3992L60.5673 -2.35645L121.285 58.3992Z" fill="#2C5857"/>
<path fill-rule="evenodd" clip-rule="evenodd" d="M30.2079 60.2226C30.2079 76.9998 43.8 90.6004 60.5668 90.6004C77.3336 90.6004 90.9258 76.9998 90.9258 60.2226C90.9258 43.4453 77.3336 29.8447 60.5668 29.8447C43.8001 29.8447 30.2079 43.4453 30.2079 60.2226Z" fill="#ECAA35"/>
</g>
</g>
</svg>
